<?xml version="1.0" encoding="utf-8"?>
<!-- Generator: Adobe Illustrator 18.0.0, SVG Export Plug-In . SVG Version: 6.00 Build 0)  -->
<!DOCTYPE svg PUBLIC "-//W3C//DTD SVG 1.1//EN" "http://www.w3.org/Graphics/SVG/1.1/DTD/svg11.dtd">
<svg version="1.1" id="Layer_1" xmlns="http://www.w3.org/2000/svg" xmlns:xlink="http://www.w3.org/1999/xlink" x="0px" y="0px"
	 viewBox="0 0 1700 1400" enable-background="new 0 0 1700 1400" xml:space="preserve">
<g>
	<rect fill="#826E6D" width="1700" height="1400"/>
	<g>
		<path fill="#3B2336" d="M976.6,1155.2l-77.2-118.6l-251.3,251.3h573.2C1122.6,1287.9,1030.5,1238,976.6,1155.2z"/>
		<g>
			<polygon fill="#7B6069" points="726.5,730.1 729.5,757 1053.5,757 1050.5,730.1 			"/>
			<polygon fill="#50384B" points="1012,390.6 688,390.6 726.5,730.1 1050.5,730.1 			"/>
		</g>
		
			<rect x="354.2" y="320.6" transform="matrix(0.7071 0.7071 -0.7071 0.7071 424.2902 -122.8272)" fill="#9A4743" width="12.5" height="260.3"/>
		<g>
			<g>
				<path fill="#FCF4AC" d="M887.5,303.9v61.5h-8c-11.9,0-21.5,9.6-21.5,21.5l-3-3c-18.3-18.3-47.8-18.3-66.1,0
					c0-7.7-3.7-14.5-9.4-18.8v7.8v232.6c0,3.5,2.9,6.4,6.4,6.4l0,0c3.5,0,6.4,2.9,6.4,6.4v4.6c0,19.3,15.7,35,35,35h0
					c19.3,0,35-15.7,35-35v-3.3c0-3.5,2.9-6.4,6.4-6.4l0,0c10.4,0,18.8-8.4,18.8-18.8V399c19.8-12.6,32.9-34.7,32.9-60v-35.1H887.5z
					"/>
				<path fill="#F4875E" d="M789,383.9c18.3-18.3,47.8-18.3,66.1,0l3,3c0-11.9,9.6-21.5,21.5-21.5h8v-61.5H779.6v61.2
					C785.3,369.4,789,376.3,789,383.9z"/>
				<path fill="#F4875E" d="M816.4,385.4c1.8,0.6,3.9-0.1,5.3-1.3c1.5-1.2,2.4-2.9,3.2-4.7c1.7-3.7,3-7.6,3.6-11.7
					c0.4-2.8,0.5-5.8-1-8.2c-1.5-2.4-4.3-3.6-6.9-4.6c-1.8-0.6-3.7-1.2-5.6-1.2s-3.9,0.7-5.2,2.2c-1.9,2.2-1.5,5.5-1.1,8.3
					c0.8,4.9,1.9,9.7,3.1,14.4C812.6,381.5,813.7,384.5,816.4,385.4z"/>
			</g>
			<g>
				<path fill="#50384B" d="M736.7,298c-38.7-2.6-63.3-6.4-63.3-10.7l0,0v22.6c0,4.3,24.6,8.1,63.3,10.7L736.7,298L736.7,298z"/>
				<path fill="#50384B" d="M1026.6,287.3c0,7.7-79.1,13.9-176.6,13.9c-34.4,0-66.4-0.8-93.5-2.1l0,0v22.6
					c27.1,1.3,59.2,2.1,93.5,2.1c97.5,0,176.6-6.2,176.6-13.9V287.3L1026.6,287.3z"/>
				<path fill="#3E2639" d="M736.7,298L736.7,298l0,22.6c7.5-2.5,14.6-5.5,19.8-7.9v-13.5l0,0l11.8-5.8L736.7,298z"/>
				<path fill="#735863" d="M850,273.4c-97.5,0-176.6,6.2-176.6,13.9c0,4.3,24.6,8.1,63.3,10.7l31.5-4.7l-11.8,5.8
					c27.1,1.3,59.2,2.1,93.5,2.1c97.5,0,176.6-6.2,176.6-13.9C1026.6,279.6,947.5,273.4,850,273.4z"/>
			</g>
			<path fill="#50384B" d="M891,105l28.9-12.2c7-2.9,4.9-13.4-2.7-13.4h-59.6c-9.2,0-17.4,5.7-20.7,14.3l-72.4,190.5
				c-0.1,0.2-0.2,0.4-0.2,0.6c0,4.7,38.4,8.5,85.8,8.5s85.8-3.8,85.8-8.5c0-0.2-0.1-0.3-0.2-0.5l-51.8-163.8
				C881.8,114.2,885,107.5,891,105z"/>
		</g>
		<path fill="#50384B" d="M688,390.7L688,390.7c-21.7,0-41.7,11.6-52.5,30.3l-65.8,114.3l-34.8-87.1c-7.7-19.4-27.8-30.8-48.4-27.6
			h0c-32.8,5.1-48.9,42.9-29.8,70l69.1,98.1c19,27,59.4,26.2,77.3-1.6L681.8,465c3.9-6,10.6-9.7,17.7-9.7l0,0L688,390.7z"/>
		<path fill="#50384B" d="M1008.6,390.7L1008.6,390.7c21.7,0,41.7,11.6,52.5,30.3l65.8,114.3l34.8-87.1
			c7.7-19.4,27.8-30.8,48.4-27.6h0c32.8,5.1,48.9,42.9,29.8,70l-69.1,98.1c-19,27-59.4,26.2-77.3-1.6L1014.9,465
			c-3.9-6-10.6-9.7-17.7-9.7h0L1008.6,390.7z"/>
		
			<ellipse transform="matrix(-0.9059 0.4235 -0.4235 -0.9059 1121.4501 652.2972)" fill="#3B2336" cx="488.2" cy="450.8" rx="34.8" ry="25"/>
		
			<ellipse transform="matrix(0.9059 0.4235 -0.4235 0.9059 304.6836 -469.6221)" fill="#3B2336" cx="1209" cy="450.8" rx="34.8" ry="25"/>
		<path fill="#F4875E" d="M506.2,435.4l-22.5-58.6c-7.2-18.7-25.2-31.1-45.3-31.1h-18.2L407.8,324l-19.7,5.7
			c3.7,2.6,8.3,3.6,12.8,2.9l1.8-0.3l7.6,13.3h-0.1l-26-11.3l-18.3,20c4.8,1.5,9.9,0.3,13.7-3l6.7-5.9l20,11.8l-23.7-2.9L372,378
			c5.1,0,9.9-2.8,12.3-7.3l3.3-6l18.7,3.8v2.5l-18.7,15.3L391,413c4.5-2.5,7.3-7.2,7.3-12.4v-11l23.3-11.9h28L437,397.7h-6.2
			c-7.5,0-14.7,3.1-19.8,8.7l30,2l20-13.4l14.9,50.7c2.7,9.2,12.9,14,21.7,10.2l0,0C505.5,452.4,509.2,443.4,506.2,435.4z"/>
		<path fill="#F4875E" d="M1183.9,432.8l18.3-45.9V335l-18.5-16.5l-3.5,1.4c-5.6,2.3-11.9,0.4-15.5-4.4l0,0l24.5-10l9,6.5l6-5.4
			c3.3-3,8.4-2.6,11.2,0.7l5.3,6.2l1.6-2c3.8-4.6,11.1-3.5,13.4,2l0,0l0,0c4.7-3.9,11.8-1.9,13.9,3.8v0c2.4,6.6,2.4,13.8,0.2,20.4
			l-18,52.9l-15.9,53.3c-2.6,8.7-11.6,13.8-20.4,11.6v0C1185.6,453,1180.1,442.3,1183.9,432.8z"/>
		<g>
			<path fill="#7D3E45" d="M676.5,1279c-1,2.8-1.5,5.8-1.5,8.9l0,0h162.6l-3-8.9H676.5z"/>
			<g>
				<path fill="#F4875E" d="M694.6,1261.8c-8.6,2.5-15.3,9-18.1,17.2h50l-20.5-20.5L694.6,1261.8z"/>
				<polygon fill="#C8594B" points="736.4,1249.6 705.9,1258.5 726.4,1279 765.8,1279 				"/>
				<polygon fill="#F4875E" points="834.6,1279 737.6,996.9 657.7,988.6 754.1,1244.5 736.4,1249.6 765.8,1279 				"/>
			</g>
		</g>
		<g>
			<path fill="#7D3E45" d="M883.5,1279c-1,2.8-1.5,5.8-1.5,8.9l0,0h162.6l-3-8.9H883.5z"/>
			<g>
				<path fill="#F4875E" d="M901.6,1261.8c-8.6,2.5-15.3,9-18.1,17.2h50l-20.5-20.5L901.6,1261.8z"/>
				<polygon fill="#C8594B" points="943.4,1249.6 912.9,1258.5 933.4,1279 972.8,1279 				"/>
				<polygon fill="#F4875E" points="1041.6,1279 944.6,996.9 864.7,988.6 961.1,1244.5 943.4,1249.6 972.8,1279 				"/>
			</g>
		</g>
		<path fill="#50384B" d="M997.1,954.8c44-53.8,64.6-123,57-192.1l-0.6-5.8h-324L600.4,863.2c-47.1,38.7-63.8,103.3-41.6,160
			l80.4,204.7l-65.3,60h74.1l251.3-251.3l77.2,118.6c53.9,82.8,146,132.7,244.7,132.7l0,0L997.1,954.8L997.1,954.8z"/>
	</g>
	<g>
		<polygon fill="#91597D" points="1334.9,787.3 1273.7,838.1 1320,652.3 1386.3,600.5 		"/>
		<polygon fill="#5F3664" points="1292.5,657 1320,652.3 1273.7,838.1 1248.5,842.5 		"/>
		<path fill="#E1D5A6" d="M1172.7,677.9l-18.8-22.7l94.2-16.4c13.2-2.3,26.7,0.1,38.3,6.7l16.9,9.7L1172.7,677.9z"/>
		<path fill="#E1D5A6" d="M1303.3,655.2L1303.3,655.2c8.1-18.4,21.1-34.3,37.5-45.9l17.1-12.1l21.2,9l-59,46.1L1303.3,655.2z"/>
		<polygon fill="#C3AF8C" points="1153.9,655.2 1122.7,836.4 1140.9,855.5 1172.7,677.9 		"/>
		<polygon fill="#91597D" points="1248.5,842.5 1130.7,863 1163.9,679.4 1292.5,657 		"/>
	</g>
	<g>
		<polygon fill="#AE5549" points="305.2,757.2 366.4,808 320.1,622.2 253.8,570.4 		"/>
		<polygon fill="#583446" points="347.6,627 320.1,622.2 366.4,808 391.6,812.4 		"/>
		<path fill="#E1D5A6" d="M467.4,647.8l18.8-22.7L392,608.7c-13.2-2.3-26.7,0.1-38.3,6.7l-16.9,9.7L467.4,647.8z"/>
		<path fill="#E1D5A6" d="M336.8,625.1L336.8,625.1c-8.1-18.4-21.1-34.3-37.5-45.9l-17.1-12.1l-21.2,9l59,46.1L336.8,625.1z"/>
		<polygon fill="#C3AF8C" points="486.2,625.1 517.4,806.3 499.2,825.4 467.4,647.8 		"/>
		<polygon fill="#AE5549" points="391.6,812.4 509.4,832.9 476.2,649.3 347.6,627 		"/>
	</g>
	<g>
		<path fill="#E1D5A6" d="M780.7,764.6l22.8-21l91.2,29.6c8,2.6,13.4,10.1,13.4,18.5l0,0h-11.9L780.7,764.6z"/>
		<path fill="#E1D5A6" d="M1035.5,764.6l-22.8-21l-91.2,29.6c-8,2.6-13.4,10.1-13.4,18.5l0,0H920L1035.5,764.6z"/>
		<g>
			<polygon fill="#D3AC55" points="898.4,924.2 802.2,909 772.5,762.6 895.8,787.4 			"/>
			<polygon fill="#D3AC55" points="917.8,924.2 1014,909 1043.7,762.6 920.4,787.4 			"/>
			<polygon fill="#AF5747" points="917.8,924.2 898.4,924.2 895.8,787.4 908.1,787.4 920.4,787.4 			"/>
		</g>
	</g>
	<g>
		<g>
			<path fill="#FCF4AC" d="M709.7,708.2L708,698l-1.7,10.2c-0.8,5-4.7,8.9-9.7,9.7l-10.2,1.7l10.2,1.7c5,0.8,8.9,4.7,9.7,9.7
				L708,741l1.7-10.2c0.8-5,4.7-8.9,9.7-9.7l10.2-1.7l-10.2-1.7C714.4,717,710.5,713.1,709.7,708.2z"/>
		</g>
		<g>
			<path fill="#FCF4AC" d="M590.7,790.3L588,774l-2.7,16.3c-1.3,8-7.6,14.2-15.5,15.5l-16.3,2.7l16.3,2.7c8,1.3,14.2,7.6,15.5,15.5
				L588,843l2.7-16.3c1.3-8,7.6-14.2,15.5-15.5l16.3-2.7l-16.3-2.7C598.2,804.5,592,798.3,590.7,790.3z"/>
		</g>
		<g>
			<path fill="#FCF4AC" d="M728,911l-2-12l-2,12c-1,5.9-5.6,10.5-11.5,11.5l-12,2l12,2c5.9,1,10.5,5.6,11.5,11.5l2,12l2-12
				c1-5.9,5.6-10.5,11.5-11.5l12-2l-12-2C733.6,921.5,729,916.9,728,911z"/>
		</g>
		<g>
			<path fill="#FCF4AC" d="M934.8,980.9L933,970l-1.8,10.9c-0.9,5.3-5,9.5-10.3,10.3L910,993l10.9,1.8c5.3,0.9,9.5,5,10.3,10.3
				l1.8,10.9l1.8-10.9c0.9-5.3,5-9.5,10.3-10.3L956,993l-10.9-1.8C939.8,990.3,935.7,986.2,934.8,980.9z"/>
		</g>
		<g>
			<path fill="#FCF4AC" d="M1083.2,818.3l-1.2-7.3l-1.2,7.3c-0.6,3.6-3.4,6.4-7,7l-7.3,1.2l7.3,1.2c3.6,0.6,6.4,3.4,7,7l1.2,7.3
				l1.2-7.3c0.6-3.6,3.4-6.4,7-7l7.3-1.2l-7.3-1.2C1086.6,824.7,1083.8,821.9,1083.2,818.3z"/>
		</g>
		<g>
			<path fill="#FCF4AC" d="M1277.2,852.2L1275,839l-2.2,13.2c-1.1,6.5-6.1,11.5-12.6,12.6L1247,867l13.2,2.2
				c6.5,1.1,11.5,6.1,12.6,12.6l2.2,13.2l2.2-13.2c1.1-6.5,6.1-11.5,12.6-12.6l13.2-2.2l-13.2-2.2
				C1283.3,863.8,1278.2,858.7,1277.2,852.2z"/>
		</g>
		<g>
			<path fill="#FCF4AC" d="M1379.6,804.4l-1.6-9.4l-1.6,9.4c-0.8,4.6-4.4,8.2-9,9l-9.4,1.6l9.4,1.6c4.6,0.8,8.2,4.4,9,9l1.6,9.4
				l1.6-9.4c0.8-4.6,4.4-8.2,9-9l9.4-1.6l-9.4-1.6C1383.9,812.7,1380.3,809.1,1379.6,804.4z"/>
		</g>
		<g>
			<path fill="#FCF4AC" d="M1251.4,555.6L1249,541l-2.4,14.6c-1.2,7.2-6.8,12.8-13.9,13.9L1218,572l14.6,2.4
				c7.2,1.2,12.8,6.8,13.9,13.9l2.4,14.6l2.4-14.6c1.2-7.2,6.8-12.8,13.9-13.9l14.6-2.4l-14.6-2.4
				C1258.2,568.4,1252.6,562.8,1251.4,555.6z"/>
		</g>
		<g>
			<path fill="#FCF4AC" d="M1348.9,502.3L1347,491l-1.9,11.3c-0.9,5.5-5.3,9.9-10.8,10.8L1323,515l11.3,1.9
				c5.5,0.9,9.9,5.3,10.8,10.8l1.9,11.3l1.9-11.3c0.9-5.5,5.3-9.9,10.8-10.8l11.3-1.9l-11.3-1.9
				C1354.1,512.2,1349.8,507.9,1348.9,502.3z"/>
		</g>
		<g>
			<path fill="#FCF4AC" d="M1426.5,682l-1.5-9l-1.5,9c-0.7,4.4-4.2,7.8-8.5,8.5l-9,1.5l9,1.5c4.4,0.7,7.8,4.2,8.5,8.5l1.5,9l1.5-9
				c0.7-4.4,4.2-7.8,8.5-8.5l9-1.5l-9-1.5C1430.6,689.8,1427.2,686.4,1426.5,682z"/>
		</g>
	</g>
	<g>
		<g>
			<path fill="#FCF4AC" d="M179.5,488.1L177,473l-2.5,15.1c-1.2,7.4-7,13.2-14.4,14.4L145,505l15.1,2.5c7.4,1.2,13.2,7,14.4,14.4
				L177,537l2.5-15.1c1.2-7.4,7-13.2,14.4-14.4L209,505l-15.1-2.5C186.5,501.3,180.7,495.5,179.5,488.1z"/>
		</g>
		<g>
			<path fill="#FCF4AC" d="M253,363.3l-2-12.3l-2,12.3c-1,6-5.7,10.7-11.7,11.7l-12.3,2l12.3,2c6,1,10.7,5.7,11.7,11.7l2,12.3
				l2-12.3c1-6,5.7-10.7,11.7-11.7l12.3-2l-12.3-2C258.7,374,254,369.3,253,363.3z"/>
		</g>
		<g>
			<path fill="#FCF4AC" d="M162.9,678.3L161,667l-1.9,11.3c-0.9,5.5-5.3,9.9-10.8,10.8L137,691l11.3,1.9c5.5,0.9,9.9,5.3,10.8,10.8
				L161,715l1.9-11.3c0.9-5.5,5.3-9.9,10.8-10.8L185,691l-11.3-1.9C168.1,688.2,163.8,683.9,162.9,678.3z"/>
		</g>
		<g>
			<path fill="#FCF4AC" d="M413.2,808.2L411,795l-2.2,13.2c-1.1,6.5-6.1,11.5-12.6,12.6L383,823l13.2,2.2
				c6.5,1.1,11.5,6.1,12.6,12.6L411,851l2.2-13.2c1.1-6.5,6.1-11.5,12.6-12.6L439,823l-13.2-2.2
				C419.3,819.8,414.2,814.7,413.2,808.2z"/>
		</g>
		<g>
			<path fill="#FCF4AC" d="M576.5,672.9L571,669l3.9,5.5c1.9,2.7,1.9,6.3,0,9L571,689l5.5-3.9c2.7-1.9,6.3-1.9,9,0l5.5,3.9l-3.9-5.5
				c-1.9-2.7-1.9-6.3,0-9l3.9-5.5l-5.5,3.9C582.8,674.9,579.2,674.9,576.5,672.9z"/>
		</g>
		<g>
			<path fill="#FCF4AC" d="M371.3,519.2L369,505l-2.3,14.2c-1.1,6.9-6.6,12.3-13.5,13.5L339,535l14.2,2.3
				c6.9,1.1,12.4,6.6,13.5,13.5L369,565l2.3-14.2c1.1-6.9,6.6-12.3,13.5-13.5L399,535l-14.2-2.3
				C377.9,531.5,372.5,526.1,371.3,519.2z"/>
		</g>
		<g>
			<path fill="#FCF4AC" d="M438.8,229.9L437,219l-1.8,10.9c-0.9,5.3-5,9.5-10.3,10.3L414,242l10.9,1.8c5.3,0.9,9.5,5,10.3,10.3
				L437,265l1.8-10.9c0.9-5.3,5-9.5,10.3-10.3L460,242l-10.9-1.8C443.8,239.3,439.7,235.2,438.8,229.9z"/>
		</g>
		<g>
			<path fill="#FCF4AC" d="M566.8,263.9L565,253l-1.8,10.9c-0.9,5.3-5,9.5-10.3,10.3L542,276l10.9,1.8c5.3,0.9,9.5,5,10.3,10.3
				L565,299l1.8-10.9c0.9-5.3,5-9.5,10.3-10.3L588,276l-10.9-1.8C571.8,273.3,567.7,269.2,566.8,263.9z"/>
		</g>
	</g>
</g>
</svg>
